<?xml version="1.0" encoding="UTF-8"?>
<!--Generator: Apple Native CoreSVG 232.5-->
<!DOCTYPE svg
PUBLIC "-//W3C//DTD SVG 1.1//EN"
       "http://www.w3.org/Graphics/SVG/1.1/DTD/svg11.dtd">
<svg version="1.1" xmlns="http://www.w3.org/2000/svg" xmlns:xlink="http://www.w3.org/1999/xlink" width="23.3887" height="17.9785">
 <g>
  <rect height="17.9785" opacity="0" width="23.3887" x="0" y="0"/>
  <path d="M3.06641 17.9785L19.9609 17.9785C22.0117 17.9785 23.0273 16.9727 23.0273 14.9609L23.0273 3.02734C23.0273 1.01562 22.0117 0 19.9609 0L3.06641 0C1.02539 0 0 1.01562 0 3.02734L0 14.9609C0 16.9727 1.02539 17.9785 3.06641 17.9785ZM3.08594 16.4062C2.10938 16.4062 1.57227 15.8887 1.57227 14.873L1.57227 3.11523C1.57227 2.09961 2.10938 1.57227 3.08594 1.57227L19.9414 1.57227C20.9082 1.57227 21.4551 2.09961 21.4551 3.11523L21.4551 14.873C21.4551 15.8887 20.9082 16.4062 19.9414 16.4062Z" fill="#8e8e93" fill-opacity="0.5"/>
  <path d="M7.98828 12.832C7.98828 13.5645 8.31055 13.9062 8.99414 13.9062L14.0527 13.9062C14.7266 13.9062 15.0488 13.5645 15.0488 12.832L15.0488 8.94531C15.0488 8.26172 14.7656 7.92969 14.1895 7.89062L14.1895 6.72852C14.1895 4.93164 13.1152 3.73047 11.5234 3.73047C9.93164 3.73047 8.85742 4.93164 8.85742 6.72852L8.85742 7.89062C8.27148 7.92969 7.98828 8.26172 7.98828 8.94531ZM9.87305 7.88086L9.87305 6.62109C9.87305 5.47852 10.5273 4.7168 11.5234 4.7168C12.5098 4.7168 13.1738 5.47852 13.1738 6.62109L13.1738 7.88086Z" fill="#8e8e93"/>
 </g>
</svg>
